<?xml version="1.0" standalone="no"?>
<!DOCTYPE svg PUBLIC "-//W3C//DTD SVG 20010904//EN"
 "http://www.w3.org/TR/2001/REC-SVG-20010904/DTD/svg10.dtd">
<svg version="1.0" xmlns="http://www.w3.org/2000/svg"
 width="730.000000pt" height="730.000000pt" viewBox="0 0 730.000000 730.000000"
 preserveAspectRatio="xMidYMid meet">
<metadata>
Created by potrace 1.14, written by Peter Selinger 2001-2017
</metadata>
<g transform="translate(0.000000,730.000000) scale(0.100000,-0.100000)"
fill="#000000" stroke="none">
<path d="M1031 5239 c-69 -18 -148 -52 -194 -84 -43 -30 -120 -111 -163 -171
-232 -324 -212 -685 59 -1089 86 -128 164 -226 338 -421 47 -54 116 -151 153
-217 102 -184 121 -425 51 -651 -8 -27 -13 -51 -11 -54 7 -6 93 106 129 168
119 202 111 435 -24 714 -21 44 -51 101 -66 126 -14 25 -31 54 -37 65 -6 11
-45 72 -87 135 -164 250 -249 413 -296 573 -23 76 -28 111 -28 202 0 99 3 116
27 168 35 75 134 174 210 211 90 44 181 40 291 -12 78 -37 142 -98 174 -168
28 -61 52 -191 47 -254 -3 -37 -1 -40 12 -29 9 7 26 33 39 59 116 229 50 479
-165 627 -153 104 -311 140 -459 102z"/>
<path d="M430 4732 c-71 -86 -95 -121 -125 -184 -57 -119 -75 -268 -50 -408
22 -123 110 -315 234 -510 203 -319 250 -402 304 -535 61 -151 72 -199 71
-320 0 -101 -2 -115 -29 -170 -33 -69 -130 -172 -190 -202 -141 -72 -304 -38
-427 89 -67 69 -95 152 -103 301 -1 32 -5 60 -8 63 -7 7 -76 -117 -82 -146 -2
-12 -7 -30 -10 -41 -10 -32 -8 -151 4 -203 28 -117 111 -231 221 -301 253
-162 520 -142 718 54 98 98 196 272 228 407 20 83 26 220 13 289 -5 28 -12 62
-14 78 -22 119 -141 350 -270 522 -16 22 -32 42 -35 45 -3 3 -18 22 -34 44
-16 21 -82 100 -148 175 -223 255 -295 414 -296 656 0 103 8 164 35 248 17 55
14 75 -7 49z"/>
<path d="M3325 4570 c-16 -18 -17 -75 -17 -977 0 -1116 -18 -990 135 -988 63
0 100 5 111 14 14 12 16 51 16 325 l1 311 44 38 44 38 15 -23 c15 -25 188
-314 215 -360 87 -150 203 -338 209 -339 4 -1 60 -2 125 -3 l119 -1 15 28 c14
28 13 31 -24 85 -21 32 -40 61 -42 66 -2 5 -17 28 -33 50 -41 59 -122 179
-128 191 -3 6 -69 106 -147 222 -79 117 -144 216 -145 221 -2 4 40 46 92 92
52 47 102 92 110 101 8 9 55 51 105 95 49 43 114 102 143 130 53 50 54 52 41
80 l-14 29 -122 0 -122 1 -58 -54 c-32 -29 -94 -86 -138 -127 -44 -40 -101
-93 -126 -117 -25 -23 -74 -70 -110 -103 l-64 -59 -3 509 c-2 456 -4 511 -19
527 -13 15 -32 18 -113 18 -83 0 -99 -3 -115 -20z"/>
<path d="M6985 4568 c-13 -20 -15 -63 -15 -298 0 -151 0 -281 0 -289 0 -9 -8
-11 -27 -6 -16 4 -39 9 -52 11 -14 3 -27 7 -31 9 -26 16 -199 23 -292 12 -271
-32 -493 -290 -525 -607 -20 -205 13 -403 92 -542 55 -98 166 -197 270 -241
157 -66 379 -28 552 96 24 17 45 28 47 26 2 -2 15 -27 29 -55 37 -73 47 -79
144 -79 80 -1 86 1 103 25 16 22 16 30 6 55 -47 112 -48 148 -48 1050 0 679
-3 814 -14 833 -14 20 -21 22 -119 22 -96 0 -105 -2 -120 -22z m-82 -809 l67
-12 0 -54 c1 -29 1 -190 1 -358 0 -168 0 -327 -1 -353 l0 -49 -87 -40 c-128
-60 -162 -68 -264 -66 -70 1 -121 27 -176 86 -146 158 -175 451 -68 670 51
103 132 167 236 186 57 10 206 5 292 -10z"/>
<path d="M5085 4009 c-219 -29 -375 -160 -450 -376 -35 -101 -45 -160 -49
-282 -7 -259 59 -464 193 -600 111 -111 237 -162 406 -164 232 -2 363 50 517
206 37 38 68 75 68 82 0 11 -38 46 -126 116 -46 36 -69 29 -140 -42 -120 -122
-292 -166 -423 -108 -110 48 -201 209 -217 385 l-5 51 436 0 c239 0 438 2 441
6 8 8 7 179 -1 242 -18 136 -65 249 -137 327 -117 126 -309 185 -513 157z
m246 -250 c65 -36 119 -128 134 -232 l7 -47 -307 0 c-287 0 -306 1 -301 18 3
9 8 31 12 47 18 79 90 181 148 212 83 44 229 45 307 2z"/>
<path d="M1856 3969 c-17 -28 -17 -25 49 -184 77 -183 425 -1059 425 -1070 0
-26 -41 -137 -84 -230 -44 -93 -85 -144 -139 -172 -43 -22 -147 -28 -213 -13
-39 10 -60 10 -77 3 -24 -11 -27 -23 -61 -209 -4 -19 3 -23 57 -35 66 -15 259
-18 317 -6 52 11 150 62 186 96 90 85 155 197 235 401 8 19 14 37 15 40 0 3 4
12 7 20 7 15 109 290 152 410 23 64 61 164 108 290 13 36 50 135 81 220 31 85
60 164 65 175 5 11 14 34 19 50 6 17 24 67 41 112 30 80 30 82 12 105 -18 22
-26 23 -135 23 l-116 0 -14 -45 c-23 -70 -296 -903 -302 -920 -6 -14 -39 66
-161 390 -28 74 -89 234 -135 355 l-83 219 -117 1 c-116 1 -116 1 -132 -26z"/>
</g>
</svg>
