<?xml version="1.0" encoding="utf-8"?>
<!-- Generator: Adobe Illustrator 16.0.0, SVG Export Plug-In . SVG Version: 6.00 Build 0)  -->
<!DOCTYPE svg PUBLIC "-//W3C//DTD SVG 1.1//EN" "http://www.w3.org/Graphics/SVG/1.1/DTD/svg11.dtd">
<svg version="1.1" id="Layer_1" xmlns:sketch="http://www.bohemiancoding.com/sketch/ns"
	 xmlns="http://www.w3.org/2000/svg" xmlns:xlink="http://www.w3.org/1999/xlink" x="0px" y="0px" width="46px" height="46px"
	 viewBox="0 0 46 46" enable-background="new 0 0 46 46" xml:space="preserve">
<title>btn_google_light_normal_ios</title>
<desc>Created with Sketch.</desc>
<g id="_x39_-PATCH" transform="translate(-608.000000, -160.000000)" sketch:type="MSArtboardGroup">
</g>
<path id="Shape" sketch:type="MSShapeGroup" fill="#4285F4" d="M31.641,23.205c0-0.638-0.059-1.252-0.164-1.841H23v3.481h4.844
	c-0.209,1.125-0.843,2.079-1.796,2.717v2.258h2.909C30.658,28.253,31.641,25.945,31.641,23.205L31.641,23.205z"/>
<path id="Shape_1_" sketch:type="MSShapeGroup" fill="#34A853" d="M23,32c2.43,0,4.467-0.806,5.957-2.181l-2.909-2.258
	c-0.806,0.54-1.837,0.858-3.048,0.858c-2.344,0-4.328-1.582-5.036-3.71h-3.007v2.332C16.438,29.983,19.482,32,23,32L23,32z"/>
<path id="Shape_2_" sketch:type="MSShapeGroup" fill="#FBBC05" d="M17.964,24.71c-0.18-0.54-0.282-1.116-0.282-1.71
	c0-0.593,0.103-1.17,0.282-1.71v-2.332h-3.007C14.348,20.173,14,21.548,14,23s0.348,2.826,0.957,4.042L17.964,24.71L17.964,24.71z"
	/>
<path id="Shape_3_" sketch:type="MSShapeGroup" fill="#EA4335" d="M23,17.58c1.321,0,2.508,0.454,3.44,1.346l2.581-2.581
	C27.463,14.892,25.426,14,23,14c-3.518,0-6.562,2.017-8.043,4.958l3.007,2.332C18.672,19.163,20.656,17.58,23,17.58L23,17.58z"/>
<path id="Shape_4_" sketch:type="MSShapeGroup" fill="none" d="M14,14h18v18H14V14z"/>
</svg>
